<svg width="1200" height="900" viewBox="0 0 1200 900" fill="none" xmlns="http://www.w3.org/2000/svg">
  <rect width="1200" height="900" rx="40" fill="#101A22"/>
  <rect x="40" y="40" width="1120" height="820" rx="28" fill="url(#paint0_linear)"/>
  <path d="M110 730H1090" stroke="#35424B" stroke-width="6"/>
  <path d="M180 760H1020" stroke="#212C34" stroke-width="12"/>
  <rect x="160" y="130" width="100" height="550" rx="18" fill="#1A252E" stroke="#394953" stroke-width="4"/>
  <rect x="940" y="130" width="100" height="550" rx="18" fill="#1A252E" stroke="#394953" stroke-width="4"/>
  <rect x="205" y="170" width="12" height="470" rx="6" fill="#FF6A21"/>
  <rect x="983" y="170" width="12" height="470" rx="6" fill="#FF6A21"/>
  <rect x="320" y="146" width="560" height="36" rx="18" fill="#202D36"/>
  <rect x="320" y="146" width="320" height="36" rx="18" fill="url(#paint1_linear)"/>
  <g opacity="0.95">
    <path d="M338 560C366 488 415 432 484 410C559 386 655 385 734 408C806 429 855 485 887 560L908 620H317L338 560Z" fill="#0E151C" stroke="#6A7A84" stroke-width="6"/>
    <path d="M408 495C474 455 747 455 812 495" stroke="#F2ECE6" stroke-width="6" stroke-linecap="round"/>
    <path d="M455 452C509 433 712 433 764 452" stroke="#FF6A21" stroke-width="8" stroke-linecap="round"/>
    <path d="M375 616H848" stroke="#93A2AB" stroke-width="5"/>
    <circle cx="455" cy="620" r="76" fill="#0B1116" stroke="#5F707A" stroke-width="8"/>
    <circle cx="455" cy="620" r="30" fill="#222F38"/>
    <circle cx="770" cy="620" r="76" fill="#0B1116" stroke="#5F707A" stroke-width="8"/>
    <circle cx="770" cy="620" r="30" fill="#222F38"/>
    <path d="M329 612H294C276 612 261 597 261 579V558" stroke="#5F707A" stroke-width="8" stroke-linecap="round"/>
    <path d="M895 612H930C948 612 963 597 963 579V558" stroke="#5F707A" stroke-width="8" stroke-linecap="round"/>
    <circle cx="371" cy="559" r="17" fill="#FFC36E"/>
    <circle cx="851" cy="559" r="17" fill="#FFC36E"/>
  </g>
  <g opacity="0.9">
    <rect x="304" y="198" width="72" height="154" rx="16" fill="#17222A"/>
    <rect x="824" y="198" width="72" height="154" rx="16" fill="#17222A"/>
    <path d="M339 225L352 257L384 270L352 283L339 315L326 283L294 270L326 257L339 225Z" fill="#FF6A21"/>
    <path d="M859 225L872 257L904 270L872 283L859 315L846 283L814 270L846 257L859 225Z" fill="#FF6A21"/>
  </g>
  <rect x="478" y="254" width="250" height="102" rx="18" fill="url(#paint2_linear)" stroke="#465660" stroke-width="4"/>
  <text x="602" y="303" text-anchor="middle" fill="#F4EFE9" font-family="Arial, sans-serif" font-size="38" font-weight="700" letter-spacing="4">CABRERA</text>
  <text x="602" y="338" text-anchor="middle" fill="#A7B3BA" font-family="Arial, sans-serif" font-size="20" font-weight="700" letter-spacing="7">AUTO REPAIR</text>
  <defs>
    <linearGradient id="paint0_linear" x1="600" y1="40" x2="600" y2="860" gradientUnits="userSpaceOnUse">
      <stop stop-color="#16212A"/>
      <stop offset="1" stop-color="#0D141A"/>
    </linearGradient>
    <linearGradient id="paint1_linear" x1="320" y1="164" x2="640" y2="164" gradientUnits="userSpaceOnUse">
      <stop stop-color="#FF6A21"/>
      <stop offset="1" stop-color="#FFB56C"/>
    </linearGradient>
    <linearGradient id="paint2_linear" x1="603" y1="254" x2="603" y2="356" gradientUnits="userSpaceOnUse">
      <stop stop-color="#24323C"/>
      <stop offset="1" stop-color="#182229"/>
    </linearGradient>
  </defs>
</svg>
